<svg version="1.1" id="Layer_1" xmlns="http://www.w3.org/2000/svg" xmlns:xlink="http://www.w3.org/1999/xlink" x="0px" y="0px"
	 viewBox="0 0 68.9 68.9" style="enable-background:new 0 0 68.9 68.9;" xml:space="preserve">
<style type="text/css">
	.st0{fill:#443A3A;}
</style>
<path class="st0" d="M60.7,38.2c-0.5,0-1,0.2-1.3,0.7c-0.3-0.5-0.8-0.7-1.3-0.7c-0.7,0-1.4,0.5-1.4,1.4c0,1.1,1.3,2.2,2.8,3.6
	c1.5-1.5,2.8-2.6,2.8-3.6C62.1,38.7,61.4,38.2,60.7,38.2"/>
<path class="st0" d="M69,40.5c-0.5,0-1,0.2-1.3,0.7c-0.3-0.5-0.8-0.7-1.3-0.7C65.7,40.5,65,41,65,42c0,1.1,1.3,2.2,2.8,3.6
	c1.5-1.5,2.8-2.6,2.8-3.6C70.5,41,69.8,40.5,69,40.5"/>
<path class="st0" d="M57,46.8c-0.5,0-1,0.2-1.3,0.7c-0.3-0.5-0.8-0.7-1.3-0.7c-0.7,0-1.4,0.5-1.4,1.4c0,1.1,1.3,2.2,2.8,3.6
	c1.5-1.5,2.8-2.6,2.8-3.6C58.4,47.3,57.7,46.8,57,46.8"/>
<path class="st0" d="M3.2,50.1c-0.5,0-1,0.2-1.3,0.7c-0.3-0.5-0.8-0.7-1.3-0.7c-0.7,0-1.4,0.5-1.4,1.4c0,1.1,1.3,2.2,2.8,3.6
	c1.5-1.5,2.8-2.6,2.8-3.6C4.7,50.6,4,50.1,3.2,50.1"/>
<path class="st0" d="M65.1,50.9c-0.5,0-1,0.2-1.3,0.7c-0.3-0.5-0.8-0.7-1.3-0.7c-0.7,0-1.4,0.5-1.4,1.4c0,1.1,1.3,2.2,2.8,3.6
	c1.5-1.5,2.8-2.6,2.8-3.6C66.5,51.4,65.8,50.9,65.1,50.9"/>
<path class="st0" d="M36.8,44.3c-0.5,0-1,0.2-1.3,0.7c-0.3-0.5-0.8-0.7-1.3-0.7c-0.7,0-1.4,0.5-1.4,1.4c0,1.1,1.3,2.2,2.8,3.6
	c1.5-1.5,2.8-2.6,2.8-3.6C38.3,44.8,37.6,44.3,36.8,44.3"/>
<path class="st0" d="M32.4,48.8c-0.5,0-1,0.2-1.3,0.7c-0.3-0.5-0.8-0.7-1.3-0.7c-0.7,0-1.4,0.5-1.4,1.4c0,1.1,1.3,2.2,2.8,3.6
	c1.5-1.5,2.8-2.6,2.8-3.6C33.9,49.3,33.2,48.8,32.4,48.8"/>
<path class="st0" d="M11,62.2c-0.5,0-1,0.2-1.3,0.7c-0.3-0.5-0.8-0.7-1.3-0.7c-0.7,0-1.4,0.5-1.4,1.4c0,1.1,1.3,2.2,2.8,3.6
	c1.5-1.5,2.8-2.6,2.8-3.6C12.5,62.7,11.7,62.2,11,62.2"/>
<path class="st0" d="M34.1,36.3c-0.5,0-1,0.2-1.3,0.7c-0.3-0.5-0.8-0.7-1.3-0.7c-0.7,0-1.4,0.5-1.4,1.4c0,1.1,1.3,2.2,2.8,3.6
	c1.5-1.5,2.8-2.6,2.8-3.6C35.5,36.8,34.8,36.3,34.1,36.3"/>
<path class="st0" d="M6,29.5c-0.5,0-1,0.2-1.3,0.7c-0.3-0.5-0.8-0.7-1.3-0.7c-0.7,0-1.4,0.5-1.4,1.4c0,1.1,1.3,2.2,2.8,3.6
	c1.5-1.5,2.8-2.6,2.8-3.6C7.4,30,6.7,29.5,6,29.5"/>
<path class="st0" d="M42.9,39.6c-0.5,0-1,0.2-1.3,0.7c-0.3-0.5-0.8-0.7-1.3-0.7c-0.7,0-1.4,0.5-1.4,1.4c0,1.1,1.3,2.2,2.8,3.6
	c1.5-1.5,2.8-2.6,2.8-3.6C44.4,40.1,43.6,39.6,42.9,39.6"/>
<path class="st0" d="M47.8,25c-0.5,0-1,0.2-1.3,0.7c-0.3-0.5-0.8-0.7-1.3-0.7c-0.7,0-1.4,0.5-1.4,1.4c0,1.1,1.3,2.2,2.8,3.6
	c1.5-1.5,2.8-2.6,2.8-3.6C49.2,25.5,48.5,25,47.8,25"/>
<path class="st0" d="M17.8,31c-0.5,0-1,0.2-1.3,0.7c-0.3-0.5-0.8-0.7-1.3-0.7c-0.7,0-1.4,0.5-1.4,1.4c0,1.1,1.3,2.2,2.8,3.6
	c1.5-1.5,2.8-2.6,2.8-3.6C19.3,31.5,18.6,31,17.8,31"/>
<path class="st0" d="M13.2,25.9c-0.5,0-1,0.2-1.3,0.7c-0.3-0.5-0.8-0.7-1.3-0.7c-0.7,0-1.4,0.5-1.4,1.4c0,1.1,1.3,2.2,2.8,3.6
	c1.5-1.5,2.8-2.6,2.8-3.6C14.7,26.4,14,25.9,13.2,25.9"/>
<path class="st0" d="M39.1,28.5c-0.5,0-1,0.2-1.3,0.7c-0.3-0.5-0.8-0.7-1.3-0.7c-0.7,0-1.4,0.5-1.4,1.4c0,1.1,1.3,2.2,2.8,3.6
	c1.5-1.5,2.8-2.6,2.8-3.6C40.5,29,39.8,28.5,39.1,28.5"/>
<path class="st0" d="M29.7,28.1c-0.5,0-1,0.2-1.3,0.7c-0.3-0.5-0.8-0.7-1.3-0.7c-0.7,0-1.4,0.5-1.4,1.4c0,1.1,1.3,2.2,2.8,3.6
	c1.5-1.5,2.8-2.6,2.8-3.6C31.1,28.6,30.4,28.1,29.7,28.1"/>
<path class="st0" d="M17.8,38.9c-0.5,0-1,0.2-1.3,0.7c-0.3-0.5-0.8-0.7-1.3-0.7c-0.7,0-1.4,0.5-1.4,1.4c0,1.1,1.3,2.2,2.8,3.6
	c1.5-1.5,2.8-2.6,2.8-3.6C19.3,39.4,18.6,38.9,17.8,38.9"/>
<path class="st0" d="M26.1,45.1c-0.5,0-1,0.2-1.3,0.7c-0.3-0.5-0.8-0.7-1.3-0.7c-0.7,0-1.4,0.5-1.4,1.4c0,1.1,1.3,2.2,2.8,3.6
	c1.5-1.5,2.8-2.6,2.8-3.6C27.5,45.6,26.8,45.1,26.1,45.1"/>
<path class="st0" d="M2.2,34.5c-0.5,0-1,0.2-1.3,0.7c-0.3-0.5-0.8-0.7-1.3-0.7c-0.7,0-1.4,0.5-1.4,1.4c0,1.1,1.3,2.2,2.8,3.6
	C2.4,38.1,3.6,37,3.6,36C3.6,35,2.9,34.5,2.2,34.5"/>
<path class="st0" d="M11,35.7c-0.5,0-1,0.2-1.3,0.7c-0.3-0.5-0.8-0.7-1.3-0.7c-0.7,0-1.4,0.5-1.4,1.4c0,1.1,1.3,2.2,2.8,3.6
	c1.5-1.5,2.8-2.6,2.8-3.6C12.5,36.2,11.7,35.7,11,35.7"/>
<path class="st0" d="M3.2,21c-0.5,0-1,0.2-1.3,0.7C1.6,21.2,1.1,21,0.6,21c-0.7,0-1.4,0.5-1.4,1.4c0,1.1,1.3,2.2,2.8,3.6
	c1.5-1.5,2.8-2.6,2.8-3.6C4.7,21.5,4,21,3.2,21"/>
<path class="st0" d="M17.8,49.3c-0.5,0-1,0.2-1.3,0.7c-0.3-0.5-0.8-0.7-1.3-0.7c-0.7,0-1.4,0.5-1.4,1.4c0,1.1,1.3,2.2,2.8,3.6
	c1.5-1.5,2.8-2.6,2.8-3.6C19.3,49.8,18.6,49.3,17.8,49.3"/>
<path class="st0" d="M39.6,21.9c-0.5,0-1,0.2-1.3,0.7c-0.3-0.5-0.8-0.7-1.3-0.7c-0.7,0-1.4,0.5-1.4,1.4c0,1.1,1.3,2.2,2.8,3.6
	c1.5-1.5,2.8-2.6,2.8-3.6C41,22.4,40.3,21.9,39.6,21.9"/>
<path class="st0" d="M26.1,34.2c-0.5,0-1,0.2-1.3,0.7c-0.3-0.5-0.8-0.7-1.3-0.7c-0.7,0-1.4,0.5-1.4,1.4c0,1.1,1.3,2.2,2.8,3.6
	c1.5-1.5,2.8-2.6,2.8-3.6C27.5,34.7,26.8,34.2,26.1,34.2"/>
<path class="st0" d="M47.8,46.8c-0.5,0-1,0.2-1.3,0.7c-0.3-0.5-0.8-0.7-1.3-0.7c-0.7,0-1.4,0.5-1.4,1.4c0,1.1,1.3,2.2,2.8,3.6
	c1.5-1.5,2.8-2.6,2.8-3.6C49.2,47.3,48.5,46.8,47.8,46.8"/>
<path class="st0" d="M41.8,50.1c-0.5,0-1,0.2-1.3,0.7c-0.3-0.5-0.8-0.7-1.3-0.7c-0.7,0-1.4,0.5-1.4,1.4c0,1.1,1.3,2.2,2.8,3.6
	c1.5-1.5,2.8-2.6,2.8-3.6C43.3,50.6,42.5,50.1,41.8,50.1"/>
<path class="st0" d="M67.1,19.4c-0.5,0-1,0.2-1.3,0.7c-0.3-0.5-0.8-0.7-1.3-0.7c-0.7,0-1.4,0.5-1.4,1.4c0,1.1,1.3,2.2,2.8,3.6
	c1.5-1.5,2.8-2.6,2.8-3.6C68.5,19.9,67.8,19.4,67.1,19.4"/>
<path class="st0" d="M34.2,17.9c-0.5,0-1,0.2-1.3,0.7c-0.3-0.5-0.8-0.7-1.3-0.7c-0.7,0-1.4,0.5-1.4,1.4c0,1.1,1.3,2.2,2.8,3.6
	c1.5-1.5,2.8-2.6,2.8-3.6C35.6,18.4,34.9,17.9,34.2,17.9"/>
<path class="st0" d="M67.1,30c-0.5,0-1,0.2-1.3,0.7c-0.3-0.5-0.8-0.7-1.3-0.7c-0.7,0-1.4,0.5-1.4,1.4c0,1.1,1.3,2.2,2.8,3.6
	c1.5-1.5,2.8-2.6,2.8-3.6C68.5,30.5,67.8,30,67.1,30"/>
<path class="st0" d="M54.2,21c-0.5,0-1,0.2-1.3,0.7c-0.3-0.5-0.8-0.7-1.3-0.7c-0.7,0-1.4,0.5-1.4,1.4c0,1.1,1.3,2.2,2.8,3.6
	c1.5-1.5,2.8-2.6,2.8-3.6C55.7,21.5,55,21,54.2,21"/>
<path class="st0" d="M46,19.4c-0.5,0-1,0.2-1.3,0.7c-0.3-0.5-0.8-0.7-1.3-0.7c-0.7,0-1.4,0.5-1.4,1.4c0,1.1,1.3,2.2,2.8,3.6
	c1.5-1.5,2.8-2.6,2.8-3.6C47.5,19.9,46.8,19.4,46,19.4"/>
<path class="st0" d="M41.5,14.3c-0.5,0-1,0.2-1.3,0.7c-0.3-0.5-0.8-0.7-1.3-0.7c-0.7,0-1.4,0.5-1.4,1.4c0,1.1,1.3,2.2,2.8,3.6
	c1.5-1.5,2.8-2.6,2.8-3.6C42.9,14.8,42.2,14.3,41.5,14.3"/>
<path class="st0" d="M55.1,28c-0.5,0-1,0.2-1.3,0.7C53.5,28.3,53,28,52.5,28c-0.7,0-1.4,0.5-1.4,1.4c0,1.1,1.3,2.2,2.8,3.6
	c1.5-1.5,2.8-2.6,2.8-3.6C56.6,28.5,55.9,28,55.1,28"/>
<path class="st0" d="M57.9,16.5c-0.5,0-1,0.2-1.3,0.7c-0.3-0.5-0.8-0.7-1.3-0.7c-0.7,0-1.4,0.5-1.4,1.4c0,1.1,1.3,2.2,2.8,3.6
	c1.5-1.5,2.8-2.6,2.8-3.6C59.3,17,58.6,16.5,57.9,16.5"/>
<path class="st0" d="M8.3,43.1c-0.5,0-1,0.2-1.3,0.7c-0.3-0.5-0.8-0.7-1.3-0.7c-0.7,0-1.4,0.5-1.4,1.4c0,1.1,1.3,2.2,2.8,3.6
	c1.5-1.5,2.8-2.6,2.8-3.6C9.7,43.6,9,43.1,8.3,43.1"/>
<path class="st0" d="M22.5,23.7c-0.5,0-1,0.2-1.3,0.7c-0.3-0.5-0.8-0.7-1.3-0.7c-0.7,0-1.4,0.5-1.4,1.4c0,1.1,1.3,2.2,2.8,3.6
	c1.5-1.5,2.8-2.6,2.8-3.6C23.9,24.2,23.2,23.7,22.5,23.7"/>
<path class="st0" d="M50.5,33.5c-0.5,0-1,0.2-1.3,0.7c-0.3-0.5-0.8-0.7-1.3-0.7c-0.7,0-1.4,0.5-1.4,1.4c0,1.1,1.3,2.2,2.8,3.6
	c1.5-1.5,2.8-2.6,2.8-3.6C52,34,51.2,33.5,50.5,33.5"/>
</svg>
